<svg xmlns="http://www.w3.org/2000/svg" width="178" height="199" viewBox="0 0 178 199" fill="none">
<path fill-rule="evenodd" clip-rule="evenodd" d="M11.277 83.6372C5.17117 83.6372 0.221436 88.5869 0.221436 94.6927V187.944C0.221436 194.05 5.17117 198.999 11.277 198.999H72.0824C78.1882 198.999 83.138 194.05 83.138 187.944V94.6927C83.138 88.5869 78.1882 83.6372 72.0824 83.6372H11.277ZM16.5646 94.4525C13.5117 94.4525 11.0368 96.9274 11.0368 99.9803V135.791C11.0368 138.844 13.5117 141.318 16.5646 141.318H66.7952C69.8481 141.318 72.3229 138.844 72.3229 135.791V99.9803C72.3229 96.9274 69.8481 94.4525 66.7952 94.4525H16.5646Z" fill="#17f2b3"/>
<path fill-rule="evenodd" clip-rule="evenodd" d="M105.249 0C99.1433 0 94.1936 4.94974 94.1936 11.0555V104.307C94.1936 110.412 99.1433 115.362 105.249 115.362H166.055C172.16 115.362 177.11 110.412 177.11 104.307V11.0555C177.11 4.94973 172.16 0 166.055 0H105.249ZM110.537 10.8153C107.484 10.8153 105.009 13.2902 105.009 16.3431V52.1534C105.009 55.2063 107.484 57.6812 110.537 57.6812H160.767C163.82 57.6812 166.295 55.2063 166.295 52.1534V16.3431C166.295 13.2902 163.82 10.8153 160.767 10.8153H110.537Z" fill="#17f2b3"/>
<path fill-rule="evenodd" clip-rule="evenodd" d="M149.471 110.555H138.416V132.666C138.416 147.931 126.041 160.305 110.777 160.305V171.361C132.147 171.361 149.471 154.037 149.471 132.666V110.555Z" fill="#17f2b3"/>
<path fill-rule="evenodd" clip-rule="evenodd" d="M27.8603 88.4443H38.9158V66.3333C38.9158 51.0688 51.2902 38.6944 66.5547 38.6944V27.6389C45.1844 27.6389 27.8603 44.963 27.8603 66.3333V88.4443Z" fill="#17f2b3"/>
<path d="M88.6658 165.833L113.541 151.472V180.195L88.6658 165.833Z" fill="#17f2b3"/>
<path d="M88.6658 33.1668L63.7908 47.5284V18.8052L88.6658 33.1668Z" fill="#17f2b3"/>
</svg>